<svg width="20" height="14" viewBox="0 0 20 14" fill="#000" xmlns="http://www.w3.org/2000/svg">
<path d="M6.66667 0C2.98467 0 0 2.98467 0 6.66667C0 10.3487 2.98467 13.3333 6.66667 13.3333C10.3487 13.3333 13.3333 10.3487 13.3333 6.66667C13.3333 2.98467 10.3487 0 6.66667 0ZM6.66667 8.66667C5.562 8.66667 4.66667 7.77133 4.66667 6.66667C4.66667 5.562 5.562 4.66667 6.66667 4.66667C7.77133 4.66667 8.66667 5.562 8.66667 6.66667C8.66822 7.76978 7.77511 8.66511 6.672 8.66667C6.67022 8.66667 6.66844 8.66667 6.66667 8.66667Z" fill="#000"/>
<path d="M14.1601 5C15.8539 5.48756 17.8534 5 17.8534 5C17.2732 7.53333 15.4332 9.12 12.7799 9.31311C11.7283 11.754 9.32453 13.3349 6.66675 13.3333L8.66675 6.97644C10.7227 0.442667 11.7765 0 16.6523 0H20.0001C19.4401 2.46667 17.5099 4.35089 14.1601 5Z" fill="#000"/>
</svg>
